<?xml version="1.0" encoding="utf-8"?>
<!-- Generator: Adobe Illustrator 19.0.0, SVG Export Plug-In . SVG Version: 6.00 Build 0)  -->
<svg version="1.1" id="Layer_1" xmlns="http://www.w3.org/2000/svg" xmlns:xlink="http://www.w3.org/1999/xlink" x="0px" y="0px"
	 viewBox="0 0 300 300" style="enable-background:new 0 0 300 300;" xml:space="preserve">
<style type="text/css">
	.st0{clip-path:url(#SVGID_2_);}
	.st1{clip-path:url(#SVGID_4_);fill:#FFFFFF;}
	.st2{clip-path:url(#SVGID_6_);}
	.st3{clip-path:url(#SVGID_8_);fill:#1E4384;}
	.st4{clip-path:url(#SVGID_10_);}
	.st5{clip-path:url(#SVGID_12_);fill:#1E4384;}
	.st6{clip-path:url(#SVGID_14_);}
	.st7{clip-path:url(#SVGID_16_);fill:#1E4384;}
	.st8{clip-path:url(#SVGID_18_);}
	.st9{clip-path:url(#SVGID_20_);fill:#1E4384;}
	.st10{clip-path:url(#SVGID_22_);}
	.st11{clip-path:url(#SVGID_24_);fill:#1E4384;}
	.st12{clip-path:url(#SVGID_26_);}
	.st13{clip-path:url(#SVGID_28_);fill:#1E4384;}
	.st14{clip-path:url(#SVGID_30_);}
	.st15{clip-path:url(#SVGID_32_);fill:#1E4384;}
	.st16{clip-path:url(#SVGID_34_);}
	.st17{clip-path:url(#SVGID_36_);}
	.st18{clip-path:url(#SVGID_38_);fill:#1E4384;}
	.st19{clip-path:url(#SVGID_40_);}
	.st20{clip-path:url(#SVGID_42_);fill:none;stroke:#FFFFFF;stroke-width:2;stroke-miterlimit:10;}
	.st21{clip-path:url(#SVGID_44_);}
	.st22{clip-path:url(#SVGID_46_);}
	.st23{clip-path:url(#SVGID_48_);fill:#1E4384;}
	.st24{clip-path:url(#SVGID_50_);}
	.st25{clip-path:url(#SVGID_52_);fill:none;stroke:#FFFFFF;stroke-width:2;stroke-miterlimit:10;}
	.st26{clip-path:url(#SVGID_54_);}
	.st27{clip-path:url(#SVGID_56_);fill:#1E4384;}
	.st28{clip-path:url(#SVGID_58_);}
	.st29{clip-path:url(#SVGID_60_);fill:#1E4384;}
	.st30{clip-path:url(#SVGID_62_);}
	.st31{clip-path:url(#SVGID_64_);fill:#1E4384;}
	.st32{clip-path:url(#SVGID_66_);}
	.st33{clip-path:url(#SVGID_68_);fill:#FFFFFF;}
	.st34{clip-path:url(#SVGID_70_);}
	.st35{clip-path:url(#SVGID_72_);fill:#1E4384;}
	.st36{clip-path:url(#SVGID_74_);}
	.st37{clip-path:url(#SVGID_76_);fill:#1E4384;}
	.st38{clip-path:url(#SVGID_78_);}
	.st39{clip-path:url(#SVGID_80_);fill:#1E4384;}
	.st40{clip-path:url(#SVGID_82_);}
	.st41{clip-path:url(#SVGID_84_);fill:#1E4384;}
	.st42{clip-path:url(#SVGID_86_);}
	.st43{clip-path:url(#SVGID_88_);fill:#1E4384;}
	.st44{clip-path:url(#SVGID_90_);}
	.st45{clip-path:url(#SVGID_92_);fill:#1E4384;}
	.st46{clip-path:url(#SVGID_94_);}
	.st47{clip-path:url(#SVGID_96_);fill:#1E4384;}
	.st48{clip-path:url(#SVGID_98_);}
	.st49{clip-path:url(#SVGID_100_);}
	.st50{clip-path:url(#SVGID_102_);fill:#1E4384;}
	.st51{clip-path:url(#SVGID_104_);}
	.st52{clip-path:url(#SVGID_106_);fill:none;stroke:#FFFFFF;stroke-width:2;stroke-miterlimit:10;}
	.st53{clip-path:url(#SVGID_108_);}
	.st54{clip-path:url(#SVGID_110_);}
	.st55{clip-path:url(#SVGID_112_);fill:#1E4384;}
	.st56{clip-path:url(#SVGID_114_);}
	.st57{clip-path:url(#SVGID_116_);fill:none;stroke:#FFFFFF;stroke-width:2;stroke-miterlimit:10;}
	.st58{clip-path:url(#SVGID_118_);}
	.st59{clip-path:url(#SVGID_120_);fill:#1E4384;}
	.st60{clip-path:url(#SVGID_122_);}
	.st61{clip-path:url(#SVGID_124_);fill:#1E4384;}
	.st62{clip-path:url(#SVGID_126_);}
	.st63{clip-path:url(#SVGID_128_);fill:#1E4384;}
	.st64{clip-path:url(#SVGID_130_);}
	.st65{clip-path:url(#SVGID_132_);fill:#FFFFFF;}
	.st66{clip-path:url(#SVGID_134_);}
	.st67{clip-path:url(#SVGID_136_);fill:#1E4384;}
	.st68{clip-path:url(#SVGID_138_);}
	.st69{clip-path:url(#SVGID_140_);fill:#1E4384;}
	.st70{clip-path:url(#SVGID_142_);}
	.st71{clip-path:url(#SVGID_144_);fill:#1E4384;}
	.st72{clip-path:url(#SVGID_146_);}
	.st73{clip-path:url(#SVGID_148_);fill:#1E4384;}
	.st74{clip-path:url(#SVGID_150_);}
	.st75{clip-path:url(#SVGID_152_);fill:#1E4384;}
	.st76{clip-path:url(#SVGID_154_);}
	.st77{clip-path:url(#SVGID_156_);fill:#1E4384;}
	.st78{clip-path:url(#SVGID_158_);}
	.st79{clip-path:url(#SVGID_160_);fill:#1E4384;}
	.st80{clip-path:url(#SVGID_162_);}
	.st81{clip-path:url(#SVGID_164_);}
	.st82{clip-path:url(#SVGID_166_);fill:#1E4384;}
	.st83{clip-path:url(#SVGID_168_);}
	.st84{clip-path:url(#SVGID_170_);fill:none;stroke:#FFFFFF;stroke-width:2;stroke-miterlimit:10;}
	.st85{clip-path:url(#SVGID_172_);}
	.st86{clip-path:url(#SVGID_174_);}
	.st87{clip-path:url(#SVGID_176_);fill:#1E4384;}
	.st88{clip-path:url(#SVGID_178_);}
	.st89{clip-path:url(#SVGID_180_);fill:none;stroke:#FFFFFF;stroke-width:2;stroke-miterlimit:10;}
	.st90{clip-path:url(#SVGID_182_);}
	.st91{clip-path:url(#SVGID_184_);fill:#1E4384;}
	.st92{clip-path:url(#SVGID_186_);}
	.st93{clip-path:url(#SVGID_188_);fill:#1E4384;}
	.st94{clip-path:url(#SVGID_190_);}
	.st95{clip-path:url(#SVGID_192_);fill:#1E4384;}
</style>
<g>
	<defs>
		<path id="SVGID_1_" d="M-226,795h151c4.4,0,8,3.6,8,8v151c0,4.4-3.6,8-8,8h-151c-4.4,0-8-3.6-8-8V803
			C-234,798.6-230.4,795-226,795z"/>
	</defs>
	<clipPath id="SVGID_2_">
		<use xlink:href="#SVGID_1_"  style="overflow:visible;"/>
	</clipPath>
	<g class="st0">
		<defs>
			<rect id="SVGID_3_" x="-570" y="-1498" width="1440" height="3296"/>
		</defs>
		<clipPath id="SVGID_4_">
			<use xlink:href="#SVGID_3_"  style="overflow:visible;"/>
		</clipPath>
		<rect x="-239" y="790" class="st1" width="177" height="177"/>
	</g>
</g>
<g>
	<defs>
		<path id="SVGID_5_" d="M-99.8,925.4l21.1,10.1c0.5,0.2,0.7,0.8,0.5,1.3c-0.1,0.2-0.2,0.4-0.4,0.5l-9,4.7l-6.7,7.6
			c-0.4,0.4-1,0.5-1.4,0.1c-0.2-0.1-0.3-0.3-0.3-0.5l-4.4-21.4l-0.3-1.5c-0.1-0.4,0.2-0.8,0.6-0.9
			C-100.1,925.3-99.9,925.3-99.8,925.4z"/>
	</defs>
	<clipPath id="SVGID_6_">
		<use xlink:href="#SVGID_5_"  style="overflow:visible;"/>
	</clipPath>
	<g class="st2">
		<defs>
			<rect id="SVGID_7_" x="-570" y="-1498" width="1440" height="3296"/>
		</defs>
		<clipPath id="SVGID_8_">
			<use xlink:href="#SVGID_7_"  style="overflow:visible;"/>
		</clipPath>
		
			<rect x="-109.7" y="918.1" transform="matrix(-0.788 0.6157 -0.6157 -0.788 408.0982 1728.399)" class="st3" width="32.3" height="32.8"/>
	</g>
</g>
<g>
	<defs>
		<path id="SVGID_9_" d="M-90.8,937.3L-90.8,937.3c0.8-0.6,2-0.5,2.6,0.3l7.2,9.2c0.6,0.8,0.5,2-0.3,2.6c-0.8,0.6-2,0.5-2.6-0.3
			l-7.2-9.2C-91.7,939.1-91.6,937.9-90.8,937.3z"/>
	</defs>
	<clipPath id="SVGID_10_">
		<use xlink:href="#SVGID_9_"  style="overflow:visible;"/>
	</clipPath>
	<g class="st4">
		<defs>
			<rect id="SVGID_11_" x="-570" y="-1498" width="1440" height="3296"/>
		</defs>
		<clipPath id="SVGID_12_">
			<use xlink:href="#SVGID_11_"  style="overflow:visible;"/>
		</clipPath>
		
			<rect x="-92.9" y="930.6" transform="matrix(-0.788 0.6157 -0.6157 -0.788 426.9338 1739.7129)" class="st5" width="13.7" height="25.4"/>
	</g>
</g>
<g>
	<defs>
		<path id="SVGID_13_" d="M-154.5,888h59c2.5,0,4.5,2,4.5,4.5s-2,4.5-4.5,4.5h-59c-2.5,0-4.5-2-4.5-4.5S-157,888-154.5,888z"/>
	</defs>
	<clipPath id="SVGID_14_">
		<use xlink:href="#SVGID_13_"  style="overflow:visible;"/>
	</clipPath>
	<g class="st6">
		<defs>
			<rect id="SVGID_15_" x="-570" y="-1498" width="1440" height="3296"/>
		</defs>
		<clipPath id="SVGID_16_">
			<use xlink:href="#SVGID_15_"  style="overflow:visible;"/>
		</clipPath>
		<rect x="-164" y="883" class="st7" width="78" height="19"/>
	</g>
</g>
<g>
	<defs>
		<path id="SVGID_17_" d="M-154.5,872h59c2.5,0,4.5,2,4.5,4.5s-2,4.5-4.5,4.5h-59c-2.5,0-4.5-2-4.5-4.5S-157,872-154.5,872z"/>
	</defs>
	<clipPath id="SVGID_18_">
		<use xlink:href="#SVGID_17_"  style="overflow:visible;"/>
	</clipPath>
	<g class="st8">
		<defs>
			<rect id="SVGID_19_" x="-570" y="-1498" width="1440" height="3296"/>
		</defs>
		<clipPath id="SVGID_20_">
			<use xlink:href="#SVGID_19_"  style="overflow:visible;"/>
		</clipPath>
		<rect x="-164" y="867" class="st9" width="78" height="19"/>
	</g>
</g>
<g>
	<defs>
		<path id="SVGID_21_" d="M-154.5,906h59c2.5,0,4.5,2,4.5,4.5s-2,4.5-4.5,4.5h-59c-2.5,0-4.5-2-4.5-4.5S-157,906-154.5,906z"/>
	</defs>
	<clipPath id="SVGID_22_">
		<use xlink:href="#SVGID_21_"  style="overflow:visible;"/>
	</clipPath>
	<g class="st10">
		<defs>
			<rect id="SVGID_23_" x="-570" y="-1498" width="1440" height="3296"/>
		</defs>
		<clipPath id="SVGID_24_">
			<use xlink:href="#SVGID_23_"  style="overflow:visible;"/>
		</clipPath>
		<rect x="-164" y="901" class="st11" width="78" height="19"/>
	</g>
</g>
<g>
	<defs>
		<path id="SVGID_25_" d="M-205,872h24c4.4,0,8,3.6,8,8v44c0,4.4-3.6,8-8,8h-24c-4.4,0-8-3.6-8-8v-44C-213,875.6-209.4,872-205,872z
			"/>
	</defs>
	<clipPath id="SVGID_26_">
		<use xlink:href="#SVGID_25_"  style="overflow:visible;"/>
	</clipPath>
	<g class="st12">
		<defs>
			<rect id="SVGID_27_" x="-570" y="-1498" width="1440" height="3296"/>
		</defs>
		<clipPath id="SVGID_28_">
			<use xlink:href="#SVGID_27_"  style="overflow:visible;"/>
		</clipPath>
		<rect x="-218" y="867" class="st13" width="50" height="70"/>
	</g>
</g>
<g>
	<defs>
		<path id="SVGID_29_" d="M-205,835h108c4.4,0,8,3.6,8,8v8c0,4.4-3.6,8-8,8h-108c-4.4,0-8-3.6-8-8v-8C-213,838.6-209.4,835-205,835z
			"/>
	</defs>
	<clipPath id="SVGID_30_">
		<use xlink:href="#SVGID_29_"  style="overflow:visible;"/>
	</clipPath>
	<g class="st14">
		<defs>
			<rect id="SVGID_31_" x="-570" y="-1498" width="1440" height="3296"/>
		</defs>
		<clipPath id="SVGID_32_">
			<use xlink:href="#SVGID_31_"  style="overflow:visible;"/>
		</clipPath>
		<rect x="-218" y="830" class="st15" width="134" height="34"/>
	</g>
</g>
<g>
	<defs>
		<path id="SVGID_33_" d="M-178.5,804.5c-2.6,0-5,1.3-6.4,3.6l-3.5,5.7l-0.5,0.8h0.9h46h0.9l-0.5-0.8l-3.9-5.9
			c-1.4-2.1-3.7-3.4-6.3-3.4H-178.5z M-178.5,805.5h26.8c2.2,0,4.2,1.1,5.4,2.9l3.9,5.9l0.4-0.8h-46l0.4,0.8l3.5-5.7
			C-182.9,806.7-180.8,805.5-178.5,805.5z M-208.9,784.5h87.8v50h-87.8V784.5z"/>
	</defs>
	<clipPath id="SVGID_34_">
		<use xlink:href="#SVGID_33_"  style="overflow:visible;"/>
	</clipPath>
	<g class="st16">
		<defs>
			<path id="SVGID_35_" d="M-178.5,805h26.8c2.4,0,4.5,1.2,5.8,3.1l3.9,5.9h-46l3.5-5.7C-183.2,806.3-181,805-178.5,805z"/>
		</defs>
		<clipPath id="SVGID_36_">
			<use xlink:href="#SVGID_35_"  style="overflow:visible;"/>
		</clipPath>
		<g class="st17">
			<defs>
				<rect id="SVGID_37_" x="-570" y="-1498" width="1440" height="3296"/>
			</defs>
			<clipPath id="SVGID_38_">
				<use xlink:href="#SVGID_37_"  style="overflow:visible;"/>
			</clipPath>
			<path class="st18" d="M-178.5,805h26.8c2.4,0,4.5,1.2,5.8,3.1l3.9,5.9h-46l3.5-5.7C-183.2,806.3-181,805-178.5,805z"/>
		</g>
	</g>
</g>
<g>
	<defs>
		<path id="SVGID_39_" d="M-178.5,805h26.8c2.4,0,4.5,1.2,5.8,3.1l3.9,5.9h-46l3.5-5.7C-183.2,806.3-181,805-178.5,805z"/>
	</defs>
	<clipPath id="SVGID_40_">
		<use xlink:href="#SVGID_39_"  style="overflow:visible;"/>
	</clipPath>
	<g class="st19">
		<defs>
			<rect id="SVGID_41_" x="-570" y="-1498" width="1440" height="3296"/>
		</defs>
		<clipPath id="SVGID_42_">
			<use xlink:href="#SVGID_41_"  style="overflow:visible;"/>
		</clipPath>
		<path class="st20" d="M-178.5,805h26.8c2.4,0,4.5,1.2,5.8,3.1l3.9,5.9h-46l3.5-5.7C-183.2,806.3-181,805-178.5,805z"/>
	</g>
</g>
<g>
	<defs>
		<path id="SVGID_43_" d="M-215.5,804.5c-2.6,0-5,1.3-6.4,3.6l-3.5,5.7l-0.5,0.8h0.9h46h0.9l-0.5-0.8l-3.9-5.9
			c-1.4-2.1-3.7-3.4-6.3-3.4H-215.5z M-215.5,805.5h26.8c2.2,0,4.2,1.1,5.4,2.9l3.9,5.9l0.4-0.8h-46l0.4,0.8l3.5-5.7
			C-219.9,806.7-217.8,805.5-215.5,805.5z M-245.9,784.5h87.8v50h-87.8V784.5z"/>
	</defs>
	<clipPath id="SVGID_44_">
		<use xlink:href="#SVGID_43_"  style="overflow:visible;"/>
	</clipPath>
	<g class="st21">
		<defs>
			<path id="SVGID_45_" d="M-215.5,805h26.8c2.4,0,4.5,1.2,5.8,3.1l3.9,5.9h-46l3.5-5.7C-220.2,806.3-218,805-215.5,805z"/>
		</defs>
		<clipPath id="SVGID_46_">
			<use xlink:href="#SVGID_45_"  style="overflow:visible;"/>
		</clipPath>
		<g class="st22">
			<defs>
				<rect id="SVGID_47_" x="-570" y="-1498" width="1440" height="3296"/>
			</defs>
			<clipPath id="SVGID_48_">
				<use xlink:href="#SVGID_47_"  style="overflow:visible;"/>
			</clipPath>
			<path class="st23" d="M-215.5,805h26.8c2.4,0,4.5,1.2,5.8,3.1l3.9,5.9h-46l3.5-5.7C-220.2,806.3-218,805-215.5,805z"/>
		</g>
	</g>
</g>
<g>
	<defs>
		<path id="SVGID_49_" d="M-215.5,805h26.8c2.4,0,4.5,1.2,5.8,3.1l3.9,5.9h-46l3.5-5.7C-220.2,806.3-218,805-215.5,805z"/>
	</defs>
	<clipPath id="SVGID_50_">
		<use xlink:href="#SVGID_49_"  style="overflow:visible;"/>
	</clipPath>
	<g class="st24">
		<defs>
			<rect id="SVGID_51_" x="-570" y="-1498" width="1440" height="3296"/>
		</defs>
		<clipPath id="SVGID_52_">
			<use xlink:href="#SVGID_51_"  style="overflow:visible;"/>
		</clipPath>
		<path class="st25" d="M-215.5,805h26.8c2.4,0,4.5,1.2,5.8,3.1l3.9,5.9h-46l3.5-5.7C-220.2,806.3-218,805-215.5,805z"/>
	</g>
</g>
<g>
	<defs>
		<circle id="SVGID_53_" cx="-82.5" cy="809.5" r="4.5"/>
	</defs>
	<clipPath id="SVGID_54_">
		<use xlink:href="#SVGID_53_"  style="overflow:visible;"/>
	</clipPath>
	<g class="st26">
		<defs>
			<rect id="SVGID_55_" x="-570" y="-1498" width="1440" height="3296"/>
		</defs>
		<clipPath id="SVGID_56_">
			<use xlink:href="#SVGID_55_"  style="overflow:visible;"/>
		</clipPath>
		<rect x="-92" y="800" class="st27" width="19" height="19"/>
	</g>
</g>
<g>
	<defs>
		<circle id="SVGID_57_" cx="-95.5" cy="809.5" r="4.5"/>
	</defs>
	<clipPath id="SVGID_58_">
		<use xlink:href="#SVGID_57_"  style="overflow:visible;"/>
	</clipPath>
	<g class="st28">
		<defs>
			<rect id="SVGID_59_" x="-570" y="-1498" width="1440" height="3296"/>
		</defs>
		<clipPath id="SVGID_60_">
			<use xlink:href="#SVGID_59_"  style="overflow:visible;"/>
		</clipPath>
		<rect x="-105" y="800" class="st29" width="19" height="19"/>
	</g>
</g>
<g>
	<defs>
		<circle id="SVGID_61_" cx="-108.5" cy="809.5" r="4.5"/>
	</defs>
	<clipPath id="SVGID_62_">
		<use xlink:href="#SVGID_61_"  style="overflow:visible;"/>
	</clipPath>
	<g class="st30">
		<defs>
			<rect id="SVGID_63_" x="-570" y="-1498" width="1440" height="3296"/>
		</defs>
		<clipPath id="SVGID_64_">
			<use xlink:href="#SVGID_63_"  style="overflow:visible;"/>
		</clipPath>
		<rect x="-118" y="800" class="st31" width="19" height="19"/>
	</g>
</g>
<g>
	<defs>
		<path id="SVGID_65_" d="M-226,795h151c4.4,0,8,3.6,8,8v151c0,4.4-3.6,8-8,8h-151c-4.4,0-8-3.6-8-8V803
			C-234,798.6-230.4,795-226,795z"/>
	</defs>
	<clipPath id="SVGID_66_">
		<use xlink:href="#SVGID_65_"  style="overflow:visible;"/>
	</clipPath>
	<g class="st32">
		<defs>
			<rect id="SVGID_67_" x="-570" y="-1498" width="1440" height="3296"/>
		</defs>
		<clipPath id="SVGID_68_">
			<use xlink:href="#SVGID_67_"  style="overflow:visible;"/>
		</clipPath>
		<rect x="-239" y="790" class="st33" width="177" height="177"/>
	</g>
</g>
<g>
	<defs>
		<path id="SVGID_69_" d="M-99.8,925.4l21.1,10.1c0.5,0.2,0.7,0.8,0.5,1.3c-0.1,0.2-0.2,0.4-0.4,0.5l-9,4.7l-6.7,7.6
			c-0.4,0.4-1,0.5-1.4,0.1c-0.2-0.1-0.3-0.3-0.3-0.5l-4.4-21.4l-0.3-1.5c-0.1-0.4,0.2-0.8,0.6-0.9
			C-100.1,925.3-99.9,925.3-99.8,925.4z"/>
	</defs>
	<clipPath id="SVGID_70_">
		<use xlink:href="#SVGID_69_"  style="overflow:visible;"/>
	</clipPath>
	<g class="st34">
		<defs>
			<rect id="SVGID_71_" x="-570" y="-1498" width="1440" height="3296"/>
		</defs>
		<clipPath id="SVGID_72_">
			<use xlink:href="#SVGID_71_"  style="overflow:visible;"/>
		</clipPath>
		
			<rect x="-109.7" y="918.1" transform="matrix(-0.788 0.6157 -0.6157 -0.788 408.0982 1728.399)" class="st35" width="32.3" height="32.8"/>
	</g>
</g>
<g>
	<defs>
		<path id="SVGID_73_" d="M-90.8,937.3L-90.8,937.3c0.8-0.6,2-0.5,2.6,0.3l7.2,9.2c0.6,0.8,0.5,2-0.3,2.6c-0.8,0.6-2,0.5-2.6-0.3
			l-7.2-9.2C-91.7,939.1-91.6,937.9-90.8,937.3z"/>
	</defs>
	<clipPath id="SVGID_74_">
		<use xlink:href="#SVGID_73_"  style="overflow:visible;"/>
	</clipPath>
	<g class="st36">
		<defs>
			<rect id="SVGID_75_" x="-570" y="-1498" width="1440" height="3296"/>
		</defs>
		<clipPath id="SVGID_76_">
			<use xlink:href="#SVGID_75_"  style="overflow:visible;"/>
		</clipPath>
		
			<rect x="-92.9" y="930.6" transform="matrix(-0.788 0.6157 -0.6157 -0.788 426.9338 1739.7129)" class="st37" width="13.7" height="25.4"/>
	</g>
</g>
<g>
	<defs>
		<path id="SVGID_77_" d="M-154.5,888h59c2.5,0,4.5,2,4.5,4.5s-2,4.5-4.5,4.5h-59c-2.5,0-4.5-2-4.5-4.5S-157,888-154.5,888z"/>
	</defs>
	<clipPath id="SVGID_78_">
		<use xlink:href="#SVGID_77_"  style="overflow:visible;"/>
	</clipPath>
	<g class="st38">
		<defs>
			<rect id="SVGID_79_" x="-570" y="-1498" width="1440" height="3296"/>
		</defs>
		<clipPath id="SVGID_80_">
			<use xlink:href="#SVGID_79_"  style="overflow:visible;"/>
		</clipPath>
		<rect x="-164" y="883" class="st39" width="78" height="19"/>
	</g>
</g>
<g>
	<defs>
		<path id="SVGID_81_" d="M-154.5,872h59c2.5,0,4.5,2,4.5,4.5s-2,4.5-4.5,4.5h-59c-2.5,0-4.5-2-4.5-4.5S-157,872-154.5,872z"/>
	</defs>
	<clipPath id="SVGID_82_">
		<use xlink:href="#SVGID_81_"  style="overflow:visible;"/>
	</clipPath>
	<g class="st40">
		<defs>
			<rect id="SVGID_83_" x="-570" y="-1498" width="1440" height="3296"/>
		</defs>
		<clipPath id="SVGID_84_">
			<use xlink:href="#SVGID_83_"  style="overflow:visible;"/>
		</clipPath>
		<rect x="-164" y="867" class="st41" width="78" height="19"/>
	</g>
</g>
<g>
	<defs>
		<path id="SVGID_85_" d="M-154.5,906h59c2.5,0,4.5,2,4.5,4.5s-2,4.5-4.5,4.5h-59c-2.5,0-4.5-2-4.5-4.5S-157,906-154.5,906z"/>
	</defs>
	<clipPath id="SVGID_86_">
		<use xlink:href="#SVGID_85_"  style="overflow:visible;"/>
	</clipPath>
	<g class="st42">
		<defs>
			<rect id="SVGID_87_" x="-570" y="-1498" width="1440" height="3296"/>
		</defs>
		<clipPath id="SVGID_88_">
			<use xlink:href="#SVGID_87_"  style="overflow:visible;"/>
		</clipPath>
		<rect x="-164" y="901" class="st43" width="78" height="19"/>
	</g>
</g>
<g>
	<defs>
		<path id="SVGID_89_" d="M-205,872h24c4.4,0,8,3.6,8,8v44c0,4.4-3.6,8-8,8h-24c-4.4,0-8-3.6-8-8v-44C-213,875.6-209.4,872-205,872z
			"/>
	</defs>
	<clipPath id="SVGID_90_">
		<use xlink:href="#SVGID_89_"  style="overflow:visible;"/>
	</clipPath>
	<g class="st44">
		<defs>
			<rect id="SVGID_91_" x="-570" y="-1498" width="1440" height="3296"/>
		</defs>
		<clipPath id="SVGID_92_">
			<use xlink:href="#SVGID_91_"  style="overflow:visible;"/>
		</clipPath>
		<rect x="-218" y="867" class="st45" width="50" height="70"/>
	</g>
</g>
<g>
	<defs>
		<path id="SVGID_93_" d="M-205,835h108c4.4,0,8,3.6,8,8v8c0,4.4-3.6,8-8,8h-108c-4.4,0-8-3.6-8-8v-8C-213,838.6-209.4,835-205,835z
			"/>
	</defs>
	<clipPath id="SVGID_94_">
		<use xlink:href="#SVGID_93_"  style="overflow:visible;"/>
	</clipPath>
	<g class="st46">
		<defs>
			<rect id="SVGID_95_" x="-570" y="-1498" width="1440" height="3296"/>
		</defs>
		<clipPath id="SVGID_96_">
			<use xlink:href="#SVGID_95_"  style="overflow:visible;"/>
		</clipPath>
		<rect x="-218" y="830" class="st47" width="134" height="34"/>
	</g>
</g>
<g>
	<defs>
		<path id="SVGID_97_" d="M-178.5,804.5c-2.6,0-5,1.3-6.4,3.6l-3.5,5.7l-0.5,0.8h0.9h46h0.9l-0.5-0.8l-3.9-5.9
			c-1.4-2.1-3.7-3.4-6.3-3.4H-178.5z M-178.5,805.5h26.8c2.2,0,4.2,1.1,5.4,2.9l3.9,5.9l0.4-0.8h-46l0.4,0.8l3.5-5.7
			C-182.9,806.7-180.8,805.5-178.5,805.5z M-208.9,784.5h87.8v50h-87.8V784.5z"/>
	</defs>
	<clipPath id="SVGID_98_">
		<use xlink:href="#SVGID_97_"  style="overflow:visible;"/>
	</clipPath>
	<g class="st48">
		<defs>
			<path id="SVGID_99_" d="M-178.5,805h26.8c2.4,0,4.5,1.2,5.8,3.1l3.9,5.9h-46l3.5-5.7C-183.2,806.3-181,805-178.5,805z"/>
		</defs>
		<clipPath id="SVGID_100_">
			<use xlink:href="#SVGID_99_"  style="overflow:visible;"/>
		</clipPath>
		<g class="st49">
			<defs>
				<rect id="SVGID_101_" x="-570" y="-1498" width="1440" height="3296"/>
			</defs>
			<clipPath id="SVGID_102_">
				<use xlink:href="#SVGID_101_"  style="overflow:visible;"/>
			</clipPath>
			<path class="st50" d="M-178.5,805h26.8c2.4,0,4.5,1.2,5.8,3.1l3.9,5.9h-46l3.5-5.7C-183.2,806.3-181,805-178.5,805z"/>
		</g>
	</g>
</g>
<g>
	<defs>
		<path id="SVGID_103_" d="M-178.5,805h26.8c2.4,0,4.5,1.2,5.8,3.1l3.9,5.9h-46l3.5-5.7C-183.2,806.3-181,805-178.5,805z"/>
	</defs>
	<clipPath id="SVGID_104_">
		<use xlink:href="#SVGID_103_"  style="overflow:visible;"/>
	</clipPath>
	<g class="st51">
		<defs>
			<rect id="SVGID_105_" x="-570" y="-1498" width="1440" height="3296"/>
		</defs>
		<clipPath id="SVGID_106_">
			<use xlink:href="#SVGID_105_"  style="overflow:visible;"/>
		</clipPath>
		<path class="st52" d="M-178.5,805h26.8c2.4,0,4.5,1.2,5.8,3.1l3.9,5.9h-46l3.5-5.7C-183.2,806.3-181,805-178.5,805z"/>
	</g>
</g>
<g>
	<defs>
		<path id="SVGID_107_" d="M-215.5,804.5c-2.6,0-5,1.3-6.4,3.6l-3.5,5.7l-0.5,0.8h0.9h46h0.9l-0.5-0.8l-3.9-5.9
			c-1.4-2.1-3.7-3.4-6.3-3.4H-215.5z M-215.5,805.5h26.8c2.2,0,4.2,1.1,5.4,2.9l3.9,5.9l0.4-0.8h-46l0.4,0.8l3.5-5.7
			C-219.9,806.7-217.8,805.5-215.5,805.5z M-245.9,784.5h87.8v50h-87.8V784.5z"/>
	</defs>
	<clipPath id="SVGID_108_">
		<use xlink:href="#SVGID_107_"  style="overflow:visible;"/>
	</clipPath>
	<g class="st53">
		<defs>
			<path id="SVGID_109_" d="M-215.5,805h26.8c2.4,0,4.5,1.2,5.8,3.1l3.9,5.9h-46l3.5-5.7C-220.2,806.3-218,805-215.5,805z"/>
		</defs>
		<clipPath id="SVGID_110_">
			<use xlink:href="#SVGID_109_"  style="overflow:visible;"/>
		</clipPath>
		<g class="st54">
			<defs>
				<rect id="SVGID_111_" x="-570" y="-1498" width="1440" height="3296"/>
			</defs>
			<clipPath id="SVGID_112_">
				<use xlink:href="#SVGID_111_"  style="overflow:visible;"/>
			</clipPath>
			<path class="st55" d="M-215.5,805h26.8c2.4,0,4.5,1.2,5.8,3.1l3.9,5.9h-46l3.5-5.7C-220.2,806.3-218,805-215.5,805z"/>
		</g>
	</g>
</g>
<g>
	<defs>
		<path id="SVGID_113_" d="M-215.5,805h26.8c2.4,0,4.5,1.2,5.8,3.1l3.9,5.9h-46l3.5-5.7C-220.2,806.3-218,805-215.5,805z"/>
	</defs>
	<clipPath id="SVGID_114_">
		<use xlink:href="#SVGID_113_"  style="overflow:visible;"/>
	</clipPath>
	<g class="st56">
		<defs>
			<rect id="SVGID_115_" x="-570" y="-1498" width="1440" height="3296"/>
		</defs>
		<clipPath id="SVGID_116_">
			<use xlink:href="#SVGID_115_"  style="overflow:visible;"/>
		</clipPath>
		<path class="st57" d="M-215.5,805h26.8c2.4,0,4.5,1.2,5.8,3.1l3.9,5.9h-46l3.5-5.7C-220.2,806.3-218,805-215.5,805z"/>
	</g>
</g>
<g>
	<defs>
		<circle id="SVGID_117_" cx="-82.5" cy="809.5" r="4.5"/>
	</defs>
	<clipPath id="SVGID_118_">
		<use xlink:href="#SVGID_117_"  style="overflow:visible;"/>
	</clipPath>
	<g class="st58">
		<defs>
			<rect id="SVGID_119_" x="-570" y="-1498" width="1440" height="3296"/>
		</defs>
		<clipPath id="SVGID_120_">
			<use xlink:href="#SVGID_119_"  style="overflow:visible;"/>
		</clipPath>
		<rect x="-92" y="800" class="st59" width="19" height="19"/>
	</g>
</g>
<g>
	<defs>
		<circle id="SVGID_121_" cx="-95.5" cy="809.5" r="4.5"/>
	</defs>
	<clipPath id="SVGID_122_">
		<use xlink:href="#SVGID_121_"  style="overflow:visible;"/>
	</clipPath>
	<g class="st60">
		<defs>
			<rect id="SVGID_123_" x="-570" y="-1498" width="1440" height="3296"/>
		</defs>
		<clipPath id="SVGID_124_">
			<use xlink:href="#SVGID_123_"  style="overflow:visible;"/>
		</clipPath>
		<rect x="-105" y="800" class="st61" width="19" height="19"/>
	</g>
</g>
<g>
	<defs>
		<circle id="SVGID_125_" cx="-108.5" cy="809.5" r="4.5"/>
	</defs>
	<clipPath id="SVGID_126_">
		<use xlink:href="#SVGID_125_"  style="overflow:visible;"/>
	</clipPath>
	<g class="st62">
		<defs>
			<rect id="SVGID_127_" x="-570" y="-1498" width="1440" height="3296"/>
		</defs>
		<clipPath id="SVGID_128_">
			<use xlink:href="#SVGID_127_"  style="overflow:visible;"/>
		</clipPath>
		<rect x="-118" y="800" class="st63" width="19" height="19"/>
	</g>
</g>
<g>
	<defs>
		<path id="SVGID_129_" d="M8,0h284c4.4,0,8,3.6,8,8v284c0,4.4-3.6,8-8,8H8c-4.4,0-8-3.6-8-8V8C0,3.6,3.6,0,8,0z"/>
	</defs>
	<clipPath id="SVGID_130_">
		<use xlink:href="#SVGID_129_"  style="overflow:visible;"/>
	</clipPath>
	<g class="st64">
		<defs>
			<rect id="SVGID_131_" x="-1" y="-1" width="300" height="300"/>
		</defs>
		<clipPath id="SVGID_132_">
			<use xlink:href="#SVGID_131_"  style="overflow:visible;"/>
		</clipPath>
		<rect x="-5" y="-5" class="st65" width="310" height="310"/>
	</g>
</g>
<g>
	<defs>
		<path id="SVGID_133_" d="M241.2,234.2l39.3,18.9c0.5,0.2,0.7,0.8,0.5,1.3c-0.1,0.2-0.2,0.4-0.4,0.5l-17.6,9.2l-13.1,14.8
			c-0.4,0.4-1,0.5-1.4,0.1c-0.2-0.1-0.3-0.3-0.3-0.5l-8.2-40l-0.6-2.7c-0.2-0.7,0.3-1.5,1.1-1.6
			C240.6,234.1,240.9,234.1,241.2,234.2z"/>
	</defs>
	<clipPath id="SVGID_134_">
		<use xlink:href="#SVGID_133_"  style="overflow:visible;"/>
	</clipPath>
	<g class="st66">
		<defs>
			<rect id="SVGID_135_" x="-1" y="-1" width="300" height="300"/>
		</defs>
		<clipPath id="SVGID_136_">
			<use xlink:href="#SVGID_135_"  style="overflow:visible;"/>
		</clipPath>
		
			<rect x="226.8" y="225" transform="matrix(-0.788 0.6157 -0.6157 -0.788 605.6819 292.7163)" class="st67" width="51.4" height="51.3"/>
	</g>
</g>
<g>
	<defs>
		<path id="SVGID_137_" d="M257.3,255.6L257.3,255.6c1.4-1.1,3.5-0.9,4.6,0.6l13,16.6c1.1,1.4,0.9,3.5-0.6,4.6s-3.5,0.9-4.6-0.6
			l-13-16.6C255.6,258.8,255.8,256.7,257.3,255.6z"/>
	</defs>
	<clipPath id="SVGID_138_">
		<use xlink:href="#SVGID_137_"  style="overflow:visible;"/>
	</clipPath>
	<g class="st68">
		<defs>
			<rect id="SVGID_139_" x="-1" y="-1" width="300" height="300"/>
		</defs>
		<clipPath id="SVGID_140_">
			<use xlink:href="#SVGID_139_"  style="overflow:visible;"/>
		</clipPath>
		
			<rect x="257.5" y="247.7" transform="matrix(-0.788 0.6157 -0.6157 -0.788 639.2967 312.8997)" class="st69" width="16.6" height="37.7"/>
	</g>
</g>
<g>
	<defs>
		<path id="SVGID_141_" d="M139.2,167.1h113.2c2.5,0,4.5,2,4.5,4.5v7.2c0,2.5-2,4.5-4.5,4.5H139.2c-2.5,0-4.5-2-4.5-4.5v-7.2
			C134.7,169.1,136.7,167.1,139.2,167.1z"/>
	</defs>
	<clipPath id="SVGID_142_">
		<use xlink:href="#SVGID_141_"  style="overflow:visible;"/>
	</clipPath>
	<g class="st70">
		<defs>
			<rect id="SVGID_143_" x="-1" y="-1" width="300" height="300"/>
		</defs>
		<clipPath id="SVGID_144_">
			<use xlink:href="#SVGID_143_"  style="overflow:visible;"/>
		</clipPath>
		<rect x="129.7" y="162.1" class="st71" width="132.2" height="26.2"/>
	</g>
</g>
<g>
	<defs>
		<path id="SVGID_145_" d="M139.2,138.3h113.2c2.5,0,4.5,2,4.5,4.5v7.2c0,2.5-2,4.5-4.5,4.5H139.2c-2.5,0-4.5-2-4.5-4.5v-7.2
			C134.7,140.3,136.7,138.3,139.2,138.3z"/>
	</defs>
	<clipPath id="SVGID_146_">
		<use xlink:href="#SVGID_145_"  style="overflow:visible;"/>
	</clipPath>
	<g class="st72">
		<defs>
			<rect id="SVGID_147_" x="-1" y="-1" width="300" height="300"/>
		</defs>
		<clipPath id="SVGID_148_">
			<use xlink:href="#SVGID_147_"  style="overflow:visible;"/>
		</clipPath>
		<rect x="129.7" y="133.3" class="st73" width="132.2" height="26.2"/>
	</g>
</g>
<g>
	<defs>
		<path id="SVGID_149_" d="M139.2,199.4h113.2c2.5,0,4.5,2,4.5,4.5v7.2c0,2.5-2,4.5-4.5,4.5H139.2c-2.5,0-4.5-2-4.5-4.5v-7.2
			C134.7,201.4,136.7,199.4,139.2,199.4z"/>
	</defs>
	<clipPath id="SVGID_150_">
		<use xlink:href="#SVGID_149_"  style="overflow:visible;"/>
	</clipPath>
	<g class="st74">
		<defs>
			<rect id="SVGID_151_" x="-1" y="-1" width="300" height="300"/>
		</defs>
		<clipPath id="SVGID_152_">
			<use xlink:href="#SVGID_151_"  style="overflow:visible;"/>
		</clipPath>
		<rect x="129.7" y="194.4" class="st75" width="132.2" height="26.2"/>
	</g>
</g>
<g>
	<defs>
		<path id="SVGID_153_" d="M45.7,138.3h55.9c4.4,0,8,3.6,8,8v91.8c0,4.4-3.6,8-8,8H45.7c-4.4,0-8-3.6-8-8v-91.8
			C37.7,141.9,41.3,138.3,45.7,138.3z"/>
	</defs>
	<clipPath id="SVGID_154_">
		<use xlink:href="#SVGID_153_"  style="overflow:visible;"/>
	</clipPath>
	<g class="st76">
		<defs>
			<rect id="SVGID_155_" x="-1" y="-1" width="300" height="300"/>
		</defs>
		<clipPath id="SVGID_156_">
			<use xlink:href="#SVGID_155_"  style="overflow:visible;"/>
		</clipPath>
		<rect x="32.7" y="133.3" class="st77" width="81.9" height="117.8"/>
	</g>
</g>
<g>
	<defs>
		<path id="SVGID_157_" d="M45.7,71.9h206.8c4.4,0,8,3.6,8,8V107c0,4.4-3.6,8-8,8H45.7c-4.4,0-8-3.6-8-8V79.9
			C37.7,75.4,41.3,71.9,45.7,71.9z"/>
	</defs>
	<clipPath id="SVGID_158_">
		<use xlink:href="#SVGID_157_"  style="overflow:visible;"/>
	</clipPath>
	<g class="st78">
		<defs>
			<rect id="SVGID_159_" x="-1" y="-1" width="300" height="300"/>
		</defs>
		<clipPath id="SVGID_160_">
			<use xlink:href="#SVGID_159_"  style="overflow:visible;"/>
		</clipPath>
		<rect x="32.7" y="66.9" class="st79" width="232.8" height="53.1"/>
	</g>
</g>
<g>
	<defs>
		<path id="SVGID_161_" d="M96.5,17.5c-2.6,0-5,1.3-6.4,3.6l-7.9,12.8l-0.5,0.8h0.9h82.6h0.9l-0.5-0.8l-8.6-13
			c-1.4-2.1-3.7-3.4-6.3-3.4H96.5z M96.5,18.5h54.3c2.2,0,4.2,1.1,5.4,2.9l8.6,13l0.4-0.8H82.6l0.4,0.8L91,21.5
			C92.2,19.6,94.3,18.5,96.5,18.5z M61.7-2.5h124.5v57.2H61.7V-2.5z"/>
	</defs>
	<clipPath id="SVGID_162_">
		<use xlink:href="#SVGID_161_"  style="overflow:visible;"/>
	</clipPath>
	<g class="st80">
		<defs>
			<path id="SVGID_163_" d="M96.5,18h54.3c2.4,0,4.5,1.2,5.8,3.1l8.6,13H82.6l7.9-12.8C91.9,19.2,94.1,18,96.5,18z"/>
		</defs>
		<clipPath id="SVGID_164_">
			<use xlink:href="#SVGID_163_"  style="overflow:visible;"/>
		</clipPath>
		<g class="st81">
			<defs>
				<rect id="SVGID_165_" x="-1" y="-1" width="300" height="300"/>
			</defs>
			<clipPath id="SVGID_166_">
				<use xlink:href="#SVGID_165_"  style="overflow:visible;"/>
			</clipPath>
			<path class="st82" d="M96.5,18h54.3c2.4,0,4.5,1.2,5.8,3.1l8.6,13H82.6l7.9-12.8C91.9,19.2,94.1,18,96.5,18z"/>
		</g>
	</g>
</g>
<g>
	<defs>
		<path id="SVGID_167_" d="M96.5,18h54.3c2.4,0,4.5,1.2,5.8,3.1l8.6,13H82.6l7.9-12.8C91.9,19.2,94.1,18,96.5,18z"/>
	</defs>
	<clipPath id="SVGID_168_">
		<use xlink:href="#SVGID_167_"  style="overflow:visible;"/>
	</clipPath>
	<g class="st83">
		<defs>
			<rect id="SVGID_169_" x="-1" y="-1" width="300" height="300"/>
		</defs>
		<clipPath id="SVGID_170_">
			<use xlink:href="#SVGID_169_"  style="overflow:visible;"/>
		</clipPath>
		<path class="st84" d="M96.5,18h54.3c2.4,0,4.5,1.2,5.8,3.1l8.6,13H82.6l7.9-12.8C91.9,19.2,94.1,18,96.5,18z"/>
	</g>
</g>
<g>
	<defs>
		<path id="SVGID_171_" d="M30.1,17.5c-2.6,0-5,1.3-6.4,3.6l-7.9,12.8l-0.5,0.8h0.9h82.6h0.9l-0.5-0.8l-8.6-13
			c-1.4-2.1-3.7-3.4-6.3-3.4H30.1z M30.1,18.5h54.3c2.2,0,4.2,1.1,5.4,2.9l8.6,13l0.4-0.8H16.2l0.4,0.8l7.9-12.8
			C25.7,19.6,27.8,18.5,30.1,18.5z M-4.7-2.5h124.5v57.2H-4.7V-2.5z"/>
	</defs>
	<clipPath id="SVGID_172_">
		<use xlink:href="#SVGID_171_"  style="overflow:visible;"/>
	</clipPath>
	<g class="st85">
		<defs>
			<path id="SVGID_173_" d="M30.1,18h54.3c2.4,0,4.5,1.2,5.8,3.1l8.6,13H16.2l7.9-12.8C25.4,19.2,27.6,18,30.1,18z"/>
		</defs>
		<clipPath id="SVGID_174_">
			<use xlink:href="#SVGID_173_"  style="overflow:visible;"/>
		</clipPath>
		<g class="st86">
			<defs>
				<rect id="SVGID_175_" x="-1" y="-1" width="300" height="300"/>
			</defs>
			<clipPath id="SVGID_176_">
				<use xlink:href="#SVGID_175_"  style="overflow:visible;"/>
			</clipPath>
			<path class="st87" d="M30.1,18h54.3c2.4,0,4.5,1.2,5.8,3.1l8.6,13H16.2l7.9-12.8C25.4,19.2,27.6,18,30.1,18z"/>
		</g>
	</g>
</g>
<g>
	<defs>
		<path id="SVGID_177_" d="M30.1,18h54.3c2.4,0,4.5,1.2,5.8,3.1l8.6,13H16.2l7.9-12.8C25.4,19.2,27.6,18,30.1,18z"/>
	</defs>
	<clipPath id="SVGID_178_">
		<use xlink:href="#SVGID_177_"  style="overflow:visible;"/>
	</clipPath>
	<g class="st88">
		<defs>
			<rect id="SVGID_179_" x="-1" y="-1" width="300" height="300"/>
		</defs>
		<clipPath id="SVGID_180_">
			<use xlink:href="#SVGID_179_"  style="overflow:visible;"/>
		</clipPath>
		<path class="st89" d="M30.1,18h54.3c2.4,0,4.5,1.2,5.8,3.1l8.6,13H16.2l7.9-12.8C25.4,19.2,27.6,18,30.1,18z"/>
	</g>
</g>
<g>
	<defs>
		<circle id="SVGID_181_" cx="272.2" cy="26" r="8.1"/>
	</defs>
	<clipPath id="SVGID_182_">
		<use xlink:href="#SVGID_181_"  style="overflow:visible;"/>
	</clipPath>
	<g class="st90">
		<defs>
			<rect id="SVGID_183_" x="-1" y="-1" width="300" height="300"/>
		</defs>
		<clipPath id="SVGID_184_">
			<use xlink:href="#SVGID_183_"  style="overflow:visible;"/>
		</clipPath>
		<rect x="259.1" y="13" class="st91" width="26.2" height="26.2"/>
	</g>
</g>
<g>
	<defs>
		<circle id="SVGID_185_" cx="248.8" cy="26" r="8.1"/>
	</defs>
	<clipPath id="SVGID_186_">
		<use xlink:href="#SVGID_185_"  style="overflow:visible;"/>
	</clipPath>
	<g class="st92">
		<defs>
			<rect id="SVGID_187_" x="-1" y="-1" width="300" height="300"/>
		</defs>
		<clipPath id="SVGID_188_">
			<use xlink:href="#SVGID_187_"  style="overflow:visible;"/>
		</clipPath>
		<rect x="235.7" y="13" class="st93" width="26.2" height="26.2"/>
	</g>
</g>
<g>
	<defs>
		<circle id="SVGID_189_" cx="225.4" cy="26" r="8.1"/>
	</defs>
	<clipPath id="SVGID_190_">
		<use xlink:href="#SVGID_189_"  style="overflow:visible;"/>
	</clipPath>
	<g class="st94">
		<defs>
			<rect id="SVGID_191_" x="-1" y="-1" width="300" height="300"/>
		</defs>
		<clipPath id="SVGID_192_">
			<use xlink:href="#SVGID_191_"  style="overflow:visible;"/>
		</clipPath>
		<rect x="212.4" y="13" class="st95" width="26.2" height="26.2"/>
	</g>
</g>
</svg>
