<?xml version="1.0" encoding="utf-8"?>
<!-- Generator: Adobe Illustrator 19.0.0, SVG Export Plug-In . SVG Version: 6.00 Build 0)  -->
<svg version="1.1" id="Layer_1" xmlns="http://www.w3.org/2000/svg" xmlns:xlink="http://www.w3.org/1999/xlink" x="0px" y="0px"
	 viewBox="0 0 300 300" style="enable-background:new 0 0 300 300;" xml:space="preserve">
<style type="text/css">
	.st0{clip-path:url(#SVGID_2_);}
	.st1{clip-path:url(#SVGID_4_);}
	.st2{clip-path:url(#SVGID_6_);fill:#1E4384;}
	.st3{clip-path:url(#SVGID_8_);}
	.st4{clip-path:url(#SVGID_10_);fill:none;stroke:#FFFFFF;stroke-width:8;stroke-miterlimit:10;}
	.st5{clip-path:url(#SVGID_12_);}
	.st6{clip-path:url(#SVGID_14_);fill:#FFFFFF;}
	.st7{clip-path:url(#SVGID_16_);}
	.st8{clip-path:url(#SVGID_18_);fill:#FFFFFF;}
	.st9{clip-path:url(#SVGID_20_);}
	.st10{clip-path:url(#SVGID_22_);fill:#FFFFFF;}
	.st11{clip-path:url(#SVGID_24_);}
	.st12{clip-path:url(#SVGID_26_);fill:#FFFFFF;}
	.st13{clip-path:url(#SVGID_28_);}
	.st14{clip-path:url(#SVGID_30_);fill:#FFFFFF;}
	.st15{clip-path:url(#SVGID_32_);}
	.st16{clip-path:url(#SVGID_34_);fill:#FFFFFF;}
	.st17{clip-path:url(#SVGID_36_);}
	.st18{clip-path:url(#SVGID_38_);fill:#FFFFFF;}
	.st19{clip-path:url(#SVGID_40_);}
	.st20{clip-path:url(#SVGID_42_);}
	.st21{clip-path:url(#SVGID_44_);fill:#FFFFFF;}
	.st22{clip-path:url(#SVGID_46_);}
	.st23{clip-path:url(#SVGID_48_);fill:none;stroke:#1E4384;stroke-width:2;stroke-miterlimit:10;}
	.st24{clip-path:url(#SVGID_50_);}
	.st25{clip-path:url(#SVGID_52_);}
	.st26{clip-path:url(#SVGID_54_);fill:#FFFFFF;}
	.st27{clip-path:url(#SVGID_56_);}
	.st28{clip-path:url(#SVGID_58_);fill:none;stroke:#1E4384;stroke-width:2;stroke-miterlimit:10;}
	.st29{clip-path:url(#SVGID_60_);}
	.st30{clip-path:url(#SVGID_62_);fill:#FFFFFF;}
	.st31{clip-path:url(#SVGID_64_);}
	.st32{clip-path:url(#SVGID_66_);fill:#FFFFFF;}
	.st33{clip-path:url(#SVGID_68_);}
	.st34{clip-path:url(#SVGID_70_);fill:#FFFFFF;}
</style>
<g>
	<defs>
		<path id="SVGID_1_" d="M8-2C2.5-2-2,2.5-2,8v284c0,5.5,4.5,10,10,10h284c5.5,0,10-4.5,10-10V8c0-5.5-4.5-10-10-10H8z M8,2h284
			c3.3,0,6,2.7,6,6v284c0,3.3-2.7,6-6,6H8c-3.3,0-6-2.7-6-6V8C2,4.7,4.7,2,8,2z M-22-22h344v344H-22V-22z"/>
	</defs>
	<clipPath id="SVGID_2_">
		<use xlink:href="#SVGID_1_"  style="overflow:visible;"/>
	</clipPath>
	<g class="st0">
		<defs>
			<path id="SVGID_3_" d="M8,0h284c4.4,0,8,3.6,8,8v284c0,4.4-3.6,8-8,8H8c-4.4,0-8-3.6-8-8V8C0,3.6,3.6,0,8,0z"/>
		</defs>
		<clipPath id="SVGID_4_">
			<use xlink:href="#SVGID_3_"  style="overflow:visible;"/>
		</clipPath>
		<g class="st1">
			<defs>
				<rect id="SVGID_5_" x="-1" y="-1" width="300" height="300"/>
			</defs>
			<clipPath id="SVGID_6_">
				<use xlink:href="#SVGID_5_"  style="overflow:visible;"/>
			</clipPath>
			<path class="st2" d="M8,0h284c4.4,0,8,3.6,8,8v284c0,4.4-3.6,8-8,8H8c-4.4,0-8-3.6-8-8V8C0,3.6,3.6,0,8,0z"/>
		</g>
	</g>
</g>
<g>
	<defs>
		<path id="SVGID_7_" d="M8,0h284c4.4,0,8,3.6,8,8v284c0,4.4-3.6,8-8,8H8c-4.4,0-8-3.6-8-8V8C0,3.6,3.6,0,8,0z"/>
	</defs>
	<clipPath id="SVGID_8_">
		<use xlink:href="#SVGID_7_"  style="overflow:visible;"/>
	</clipPath>
	<g class="st3">
		<defs>
			<rect id="SVGID_9_" x="-1" y="-1" width="300" height="300"/>
		</defs>
		<clipPath id="SVGID_10_">
			<use xlink:href="#SVGID_9_"  style="overflow:visible;"/>
		</clipPath>
		<path class="st4" d="M8,0h284c4.4,0,8,3.6,8,8v284c0,4.4-3.6,8-8,8H8c-4.4,0-8-3.6-8-8V8C0,3.6,3.6,0,8,0z"/>
	</g>
</g>
<g>
	<defs>
		<path id="SVGID_11_" d="M241.2,234.2l39.3,18.9c0.5,0.2,0.7,0.8,0.5,1.3c-0.1,0.2-0.2,0.4-0.4,0.5l-17.6,9.2l-13.1,14.8
			c-0.4,0.4-1,0.5-1.4,0.1c-0.2-0.1-0.3-0.3-0.3-0.5l-8.2-40l-0.6-2.7c-0.2-0.7,0.3-1.5,1.1-1.6
			C240.6,234.1,240.9,234.1,241.2,234.2z"/>
	</defs>
	<clipPath id="SVGID_12_">
		<use xlink:href="#SVGID_11_"  style="overflow:visible;"/>
	</clipPath>
	<g class="st5">
		<defs>
			<rect id="SVGID_13_" x="-1" y="-1" width="300" height="300"/>
		</defs>
		<clipPath id="SVGID_14_">
			<use xlink:href="#SVGID_13_"  style="overflow:visible;"/>
		</clipPath>
		
			<rect x="226.8" y="225" transform="matrix(-0.788 0.6157 -0.6157 -0.788 605.6819 292.7163)" class="st6" width="51.4" height="51.3"/>
	</g>
</g>
<g>
	<defs>
		<path id="SVGID_15_" d="M257.3,255.6L257.3,255.6c1.4-1.1,3.5-0.9,4.6,0.6l13,16.6c1.1,1.4,0.9,3.5-0.6,4.6s-3.5,0.9-4.6-0.6
			l-13-16.6C255.6,258.8,255.8,256.7,257.3,255.6z"/>
	</defs>
	<clipPath id="SVGID_16_">
		<use xlink:href="#SVGID_15_"  style="overflow:visible;"/>
	</clipPath>
	<g class="st7">
		<defs>
			<rect id="SVGID_17_" x="-1" y="-1" width="300" height="300"/>
		</defs>
		<clipPath id="SVGID_18_">
			<use xlink:href="#SVGID_17_"  style="overflow:visible;"/>
		</clipPath>
		
			<rect x="257.5" y="247.7" transform="matrix(-0.788 0.6157 -0.6157 -0.788 639.2967 312.8997)" class="st8" width="16.6" height="37.7"/>
	</g>
</g>
<g>
	<defs>
		<path id="SVGID_19_" d="M139.2,167.1h113.2c2.5,0,4.5,2,4.5,4.5v7.2c0,2.5-2,4.5-4.5,4.5H139.2c-2.5,0-4.5-2-4.5-4.5v-7.2
			C134.7,169.1,136.7,167.1,139.2,167.1z"/>
	</defs>
	<clipPath id="SVGID_20_">
		<use xlink:href="#SVGID_19_"  style="overflow:visible;"/>
	</clipPath>
	<g class="st9">
		<defs>
			<rect id="SVGID_21_" x="-1" y="-1" width="300" height="300"/>
		</defs>
		<clipPath id="SVGID_22_">
			<use xlink:href="#SVGID_21_"  style="overflow:visible;"/>
		</clipPath>
		<rect x="129.7" y="162.1" class="st10" width="132.2" height="26.2"/>
	</g>
</g>
<g>
	<defs>
		<path id="SVGID_23_" d="M139.2,138.3h113.2c2.5,0,4.5,2,4.5,4.5v7.2c0,2.5-2,4.5-4.5,4.5H139.2c-2.5,0-4.5-2-4.5-4.5v-7.2
			C134.7,140.3,136.7,138.3,139.2,138.3z"/>
	</defs>
	<clipPath id="SVGID_24_">
		<use xlink:href="#SVGID_23_"  style="overflow:visible;"/>
	</clipPath>
	<g class="st11">
		<defs>
			<rect id="SVGID_25_" x="-1" y="-1" width="300" height="300"/>
		</defs>
		<clipPath id="SVGID_26_">
			<use xlink:href="#SVGID_25_"  style="overflow:visible;"/>
		</clipPath>
		<rect x="129.7" y="133.3" class="st12" width="132.2" height="26.2"/>
	</g>
</g>
<g>
	<defs>
		<path id="SVGID_27_" d="M139.2,199.4h113.2c2.5,0,4.5,2,4.5,4.5v7.2c0,2.5-2,4.5-4.5,4.5H139.2c-2.5,0-4.5-2-4.5-4.5v-7.2
			C134.7,201.4,136.7,199.4,139.2,199.4z"/>
	</defs>
	<clipPath id="SVGID_28_">
		<use xlink:href="#SVGID_27_"  style="overflow:visible;"/>
	</clipPath>
	<g class="st13">
		<defs>
			<rect id="SVGID_29_" x="-1" y="-1" width="300" height="300"/>
		</defs>
		<clipPath id="SVGID_30_">
			<use xlink:href="#SVGID_29_"  style="overflow:visible;"/>
		</clipPath>
		<rect x="129.7" y="194.4" class="st14" width="132.2" height="26.2"/>
	</g>
</g>
<g>
	<defs>
		<path id="SVGID_31_" d="M45.7,138.3h55.9c4.4,0,8,3.6,8,8v91.8c0,4.4-3.6,8-8,8H45.7c-4.4,0-8-3.6-8-8v-91.8
			C37.7,141.9,41.3,138.3,45.7,138.3z"/>
	</defs>
	<clipPath id="SVGID_32_">
		<use xlink:href="#SVGID_31_"  style="overflow:visible;"/>
	</clipPath>
	<g class="st15">
		<defs>
			<rect id="SVGID_33_" x="-1" y="-1" width="300" height="300"/>
		</defs>
		<clipPath id="SVGID_34_">
			<use xlink:href="#SVGID_33_"  style="overflow:visible;"/>
		</clipPath>
		<rect x="32.7" y="133.3" class="st16" width="81.9" height="117.8"/>
	</g>
</g>
<g>
	<defs>
		<path id="SVGID_35_" d="M45.7,71.9h206.8c4.4,0,8,3.6,8,8V107c0,4.4-3.6,8-8,8H45.7c-4.4,0-8-3.6-8-8V79.9
			C37.7,75.4,41.3,71.9,45.7,71.9z"/>
	</defs>
	<clipPath id="SVGID_36_">
		<use xlink:href="#SVGID_35_"  style="overflow:visible;"/>
	</clipPath>
	<g class="st17">
		<defs>
			<rect id="SVGID_37_" x="-1" y="-1" width="300" height="300"/>
		</defs>
		<clipPath id="SVGID_38_">
			<use xlink:href="#SVGID_37_"  style="overflow:visible;"/>
		</clipPath>
		<rect x="32.7" y="66.9" class="st18" width="232.8" height="53.1"/>
	</g>
</g>
<g>
	<defs>
		<path id="SVGID_39_" d="M96.5,17.5c-2.6,0-5,1.3-6.4,3.6l-7.9,12.8l-0.5,0.8h0.9h82.6h0.9l-0.5-0.8l-8.6-13
			c-1.4-2.1-3.7-3.4-6.3-3.4H96.5z M96.5,18.5h54.3c2.2,0,4.2,1.1,5.4,2.9l8.6,13l0.4-0.8H82.6l0.4,0.8L91,21.5
			C92.2,19.6,94.3,18.5,96.5,18.5z M61.7-2.5h124.5v57.2H61.7V-2.5z"/>
	</defs>
	<clipPath id="SVGID_40_">
		<use xlink:href="#SVGID_39_"  style="overflow:visible;"/>
	</clipPath>
	<g class="st19">
		<defs>
			<path id="SVGID_41_" d="M96.5,18h54.3c2.4,0,4.5,1.2,5.8,3.1l8.6,13H82.6l7.9-12.8C91.9,19.2,94.1,18,96.5,18z"/>
		</defs>
		<clipPath id="SVGID_42_">
			<use xlink:href="#SVGID_41_"  style="overflow:visible;"/>
		</clipPath>
		<g class="st20">
			<defs>
				<rect id="SVGID_43_" x="-1" y="-1" width="300" height="300"/>
			</defs>
			<clipPath id="SVGID_44_">
				<use xlink:href="#SVGID_43_"  style="overflow:visible;"/>
			</clipPath>
			<path class="st21" d="M96.5,18h54.3c2.4,0,4.5,1.2,5.8,3.1l8.6,13H82.6l7.9-12.8C91.9,19.2,94.1,18,96.5,18z"/>
		</g>
	</g>
</g>
<g>
	<defs>
		<path id="SVGID_45_" d="M96.5,18h54.3c2.4,0,4.5,1.2,5.8,3.1l8.6,13H82.6l7.9-12.8C91.9,19.2,94.1,18,96.5,18z"/>
	</defs>
	<clipPath id="SVGID_46_">
		<use xlink:href="#SVGID_45_"  style="overflow:visible;"/>
	</clipPath>
	<g class="st22">
		<defs>
			<rect id="SVGID_47_" x="-1" y="-1" width="300" height="300"/>
		</defs>
		<clipPath id="SVGID_48_">
			<use xlink:href="#SVGID_47_"  style="overflow:visible;"/>
		</clipPath>
		<path class="st23" d="M96.5,18h54.3c2.4,0,4.5,1.2,5.8,3.1l8.6,13H82.6l7.9-12.8C91.9,19.2,94.1,18,96.5,18z"/>
	</g>
</g>
<g>
	<defs>
		<path id="SVGID_49_" d="M30.1,17.5c-2.6,0-5,1.3-6.4,3.6l-7.9,12.8l-0.5,0.8h0.9h82.6h0.9l-0.5-0.8l-8.6-13
			c-1.4-2.1-3.7-3.4-6.3-3.4H30.1z M30.1,18.5h54.3c2.2,0,4.2,1.1,5.4,2.9l8.6,13l0.4-0.8H16.2l0.4,0.8l7.9-12.8
			C25.7,19.6,27.8,18.5,30.1,18.5z M-4.7-2.5h124.5v57.2H-4.7V-2.5z"/>
	</defs>
	<clipPath id="SVGID_50_">
		<use xlink:href="#SVGID_49_"  style="overflow:visible;"/>
	</clipPath>
	<g class="st24">
		<defs>
			<path id="SVGID_51_" d="M30.1,18h54.3c2.4,0,4.5,1.2,5.8,3.1l8.6,13H16.2l7.9-12.8C25.4,19.2,27.6,18,30.1,18z"/>
		</defs>
		<clipPath id="SVGID_52_">
			<use xlink:href="#SVGID_51_"  style="overflow:visible;"/>
		</clipPath>
		<g class="st25">
			<defs>
				<rect id="SVGID_53_" x="-1" y="-1" width="300" height="300"/>
			</defs>
			<clipPath id="SVGID_54_">
				<use xlink:href="#SVGID_53_"  style="overflow:visible;"/>
			</clipPath>
			<path class="st26" d="M30.1,18h54.3c2.4,0,4.5,1.2,5.8,3.1l8.6,13H16.2l7.9-12.8C25.4,19.2,27.6,18,30.1,18z"/>
		</g>
	</g>
</g>
<g>
	<defs>
		<path id="SVGID_55_" d="M30.1,18h54.3c2.4,0,4.5,1.2,5.8,3.1l8.6,13H16.2l7.9-12.8C25.4,19.2,27.6,18,30.1,18z"/>
	</defs>
	<clipPath id="SVGID_56_">
		<use xlink:href="#SVGID_55_"  style="overflow:visible;"/>
	</clipPath>
	<g class="st27">
		<defs>
			<rect id="SVGID_57_" x="-1" y="-1" width="300" height="300"/>
		</defs>
		<clipPath id="SVGID_58_">
			<use xlink:href="#SVGID_57_"  style="overflow:visible;"/>
		</clipPath>
		<path class="st28" d="M30.1,18h54.3c2.4,0,4.5,1.2,5.8,3.1l8.6,13H16.2l7.9-12.8C25.4,19.2,27.6,18,30.1,18z"/>
	</g>
</g>
<g>
	<defs>
		<circle id="SVGID_59_" cx="272.2" cy="26" r="8.1"/>
	</defs>
	<clipPath id="SVGID_60_">
		<use xlink:href="#SVGID_59_"  style="overflow:visible;"/>
	</clipPath>
	<g class="st29">
		<defs>
			<rect id="SVGID_61_" x="-1" y="-1" width="300" height="300"/>
		</defs>
		<clipPath id="SVGID_62_">
			<use xlink:href="#SVGID_61_"  style="overflow:visible;"/>
		</clipPath>
		<rect x="259.1" y="13" class="st30" width="26.2" height="26.2"/>
	</g>
</g>
<g>
	<defs>
		<circle id="SVGID_63_" cx="248.8" cy="26" r="8.1"/>
	</defs>
	<clipPath id="SVGID_64_">
		<use xlink:href="#SVGID_63_"  style="overflow:visible;"/>
	</clipPath>
	<g class="st31">
		<defs>
			<rect id="SVGID_65_" x="-1" y="-1" width="300" height="300"/>
		</defs>
		<clipPath id="SVGID_66_">
			<use xlink:href="#SVGID_65_"  style="overflow:visible;"/>
		</clipPath>
		<rect x="235.7" y="13" class="st32" width="26.2" height="26.2"/>
	</g>
</g>
<g>
	<defs>
		<circle id="SVGID_67_" cx="225.4" cy="26" r="8.1"/>
	</defs>
	<clipPath id="SVGID_68_">
		<use xlink:href="#SVGID_67_"  style="overflow:visible;"/>
	</clipPath>
	<g class="st33">
		<defs>
			<rect id="SVGID_69_" x="-1" y="-1" width="300" height="300"/>
		</defs>
		<clipPath id="SVGID_70_">
			<use xlink:href="#SVGID_69_"  style="overflow:visible;"/>
		</clipPath>
		<rect x="212.4" y="13" class="st34" width="26.2" height="26.2"/>
	</g>
</g>
</svg>
